<svg width="16" height="16" viewBox="0 0 16 16" fill="none" xmlns="http://www.w3.org/2000/svg">
<g clip-path="url(#clip0_729_3301)">
<rect width="16" height="16" fill="white"/>
<path fill-rule="evenodd" clip-rule="evenodd" d="M3.736 15.11C4.74722 13.9115 5.57175 12.7938 6.15063 11.8478L3.35232 9.29492C2.97631 9.52969 2.57484 9.80124 2.15332 10.1061V1.375C2.15332 0.822715 2.60104 0.375 3.15332 0.375H6.78942C8.29027 0.375 9.59398 0.691456 10.7005 1.32437C11.8198 1.94409 12.6847 2.80775 13.2952 3.91535C13.9057 5.00976 14.211 6.28218 14.211 7.7326C14.211 9.16984 13.9057 10.4488 13.2952 11.5696C12.6847 12.6772 11.8198 13.5475 10.7005 14.1804C9.59398 14.8001 8.29027 15.11 6.78942 15.11H3.736ZM4.08473 8.87945L6.68287 11.2498L8.57019 11.1124C9.19882 11.0665 9.72757 10.6246 9.88334 10.0155L9.8838 10.0139C9.94126 9.81018 10.9236 6.3273 11.0101 5.49869C11.0272 5.33525 10.9891 5.15561 10.9061 4.98847L9.61742 6.30276C9.46289 6.46066 9.20889 6.46333 9.05086 6.30912C8.89262 6.1547 8.88995 5.90124 9.04449 5.74354L10.3268 4.43581C10.1733 4.36855 10.0116 4.33882 9.8632 4.3544C9.03072 4.44094 5.52282 5.4263 5.33684 5.47879C4.72671 5.63424 4.28386 6.16147 4.23782 6.78898L4.08473 8.87945ZM5.33684 5.47879C5.33951 5.47797 5.34239 5.47736 5.34527 5.47674L5.32924 5.48084L5.33684 5.47879ZM9.88334 10.0155L9.88108 10.0231L9.8854 10.0071L9.88334 10.0155Z" fill="#1B70DF"/>
</g>
<defs>
<clipPath id="clip0_729_3301">
<rect width="16" height="16" fill="white"/>
</clipPath>
</defs>
</svg>
