<svg width="35" height="25" viewBox="0 0 35 25" fill="none" xmlns="http://www.w3.org/2000/svg">
<rect width="35" height="25" rx="4" fill="white"/>
<rect x="0.5" y="0.5" width="34" height="24" rx="3.5" stroke="#838E9E" stroke-opacity="0.3"/>
<path d="M20.7045 18.1102H14.4581V6.57007H20.7045V18.1102Z" fill="#FF5F00"/>
<path d="M14.8582 12.3392C14.8582 9.9982 15.9244 7.91292 17.5848 6.56909C16.3706 5.58641 14.8382 4.99988 13.1729 4.99988C9.23032 4.99988 6.03442 8.28574 6.03442 12.3392C6.03442 16.3926 9.23032 19.6785 13.1729 19.6785C14.8382 19.6785 16.3706 19.0919 17.5848 18.1093C15.9244 16.7654 14.8582 14.6802 14.8582 12.3392" fill="#EB001B"/>
<path d="M29.1288 12.3392C29.1288 16.3926 25.9329 19.6785 21.9903 19.6785C20.325 19.6785 18.7926 19.0919 17.578 18.1093C19.2388 16.7654 20.305 14.6802 20.305 12.3392C20.305 9.9982 19.2388 7.91292 17.578 6.56909C18.7926 5.58641 20.325 4.99988 21.9903 4.99988C25.9329 4.99988 29.1288 8.28574 29.1288 12.3392" fill="#F79E1B"/>
</svg>
