<svg width="66" height="17" viewBox="0 0 66 17" fill="none" xmlns="http://www.w3.org/2000/svg">
<g id="Group 1171274185">
<g id="Group 1171274182">
<path id="Fill 7" fill-rule="evenodd" clip-rule="evenodd" d="M3.8898 15.6694L4.16978 13.8837L3.54608 13.8691H0.567749L2.63758 0.691951C2.64403 0.652049 2.66487 0.615007 2.69532 0.588657C2.72591 0.562307 2.7649 0.547852 2.80569 0.547852H7.82761C9.49493 0.547852 10.6455 0.896129 11.2461 1.58365C11.5277 1.90618 11.7071 2.24331 11.7939 2.61417C11.8849 3.00341 11.8864 3.46838 11.7977 4.03559L11.7912 4.07685V4.44033L12.0728 4.60054C12.3099 4.72687 12.4985 4.87142 12.643 5.0369C12.8839 5.31276 13.0397 5.66329 13.1055 6.07872C13.1736 6.50605 13.1511 7.01469 13.0397 7.59048C12.9112 8.25271 12.7035 8.82955 12.4229 9.30145C12.1649 9.73631 11.8362 10.0971 11.4458 10.3765C11.0732 10.6422 10.6305 10.8438 10.1299 10.9728C9.64475 11.0996 9.09167 11.1636 8.48506 11.1636H8.09425C7.81486 11.1636 7.54342 11.2646 7.33032 11.4458C7.11662 11.6307 6.97535 11.8833 6.93201 12.1596L6.90247 12.3205L6.40773 15.4679L6.38538 15.5834C6.37938 15.62 6.36919 15.6382 6.35419 15.6505C6.34084 15.6618 6.32165 15.6694 6.3029 15.6694H3.8898Z" fill="#28356A"/>
<path id="Fill 8" fill-rule="evenodd" clip-rule="evenodd" d="M12.3397 4.12036C12.3248 4.21658 12.3076 4.3149 12.2884 4.41594C11.6261 7.83004 9.3603 9.00949 6.46655 9.00949H4.99314C4.63922 9.00949 4.34093 9.26742 4.2859 9.61796L3.31787 15.7832C3.28202 16.0134 3.45868 16.2208 3.68993 16.2208H6.30324C6.61262 16.2208 6.87551 15.9951 6.92425 15.6886L6.94989 15.5554L7.44193 12.4203L7.47358 12.2483C7.52172 11.9409 7.78521 11.715 8.09459 11.715H8.4854C11.0173 11.715 12.9994 10.683 13.5787 7.69618C13.8206 6.44853 13.6954 5.40671 13.055 4.67402C12.8613 4.45313 12.6209 4.26973 12.3397 4.12036Z" fill="#298FC2"/>
<path id="Fill 9" fill-rule="evenodd" clip-rule="evenodd" d="M11.647 3.84291C11.5457 3.81324 11.4414 3.78644 11.3343 3.7622C11.2266 3.73856 11.1164 3.71763 11.0029 3.69926C10.6056 3.63481 10.1703 3.60425 9.70401 3.60425H5.76785C5.67083 3.60425 5.57875 3.62623 5.49641 3.66598C5.31481 3.75362 5.17999 3.92617 5.14729 4.13743L4.30988 9.46262L4.28589 9.61786C4.34093 9.26732 4.63921 9.00939 4.99313 9.00939H6.46655C9.36029 9.00939 11.6261 7.82934 12.2884 4.41584C12.3082 4.31481 12.3248 4.21648 12.3397 4.12026C12.1722 4.03097 11.9907 3.95463 11.7953 3.88959C11.747 3.87347 11.6972 3.85796 11.647 3.84291Z" fill="#22284F"/>
<path id="Fill 11" fill-rule="evenodd" clip-rule="evenodd" d="M5.14724 4.13867C5.17993 3.92741 5.31475 3.75486 5.49636 3.66782C5.57929 3.62792 5.67077 3.60594 5.7678 3.60594H9.70396C10.1702 3.60594 10.6056 3.63666 11.0028 3.7011C11.1163 3.71932 11.2266 3.7404 11.3342 3.76404C11.4413 3.78813 11.5457 3.81508 11.6469 3.8446C11.6972 3.85965 11.7469 3.87531 11.7957 3.89082C11.9911 3.95587 12.1727 4.03281 12.3402 4.1215C12.5373 2.85985 12.3386 2.00082 11.6592 1.22296C10.9101 0.366496 9.55834 0 7.82848 0H2.80642C2.4531 0 2.15167 0.257933 2.09708 0.60907L0.00535322 13.9217C-0.0358875 14.1851 0.166417 14.4227 0.430957 14.4227H3.53136L5.14724 4.13867Z" fill="#28356A"/>
</g>
<g id="Group 1171274183">
<path id="Fill 1" fill-rule="evenodd" clip-rule="evenodd" d="M24.6293 1.7771H20.9677C20.7171 1.7771 20.504 1.9599 20.4648 2.20834L18.9839 11.6355C18.9545 11.8216 19.0981 11.9892 19.286 11.9892H21.034C21.2846 11.9892 21.4977 11.8065 21.5368 11.5576L21.9362 9.01487C21.9747 8.76597 22.1883 8.58318 22.4384 8.58318H23.5975C26.0094 8.58318 27.4014 7.41126 27.765 5.08912C27.9288 4.07305 27.7719 3.27486 27.2981 2.71578C26.7777 2.10189 25.8546 1.7771 24.6293 1.7771ZM25.0514 5.21998C24.8512 6.53915 23.8474 6.53915 22.8768 6.53915H22.3242L22.7118 4.07547C22.7349 3.92655 22.8633 3.81694 23.0132 3.81694H23.2665C23.9277 3.81694 24.5514 3.81694 24.8737 4.19533C25.066 4.42104 25.1248 4.75652 25.0514 5.21998Z" fill="#28356A"/>
<path id="Fill 2" fill-rule="evenodd" clip-rule="evenodd" d="M35.6677 5.10508H33.9143C33.765 5.10508 33.6358 5.2147 33.6129 5.36362L33.5352 5.856L33.4127 5.67757C33.0331 5.12436 32.1866 4.93945 31.3418 4.93945C29.4041 4.93945 27.7492 6.41297 27.4269 8.47989C27.2594 9.51087 27.4976 10.4968 28.0802 11.1843C28.6145 11.8165 29.3791 12.08 30.2886 12.08C31.8499 12.08 32.7155 11.072 32.7155 11.072L32.6374 11.5612C32.608 11.7482 32.7515 11.916 32.9383 11.916H34.5176C34.7688 11.916 34.9809 11.7332 35.0205 11.4843L35.9681 5.45878C35.9981 5.27327 35.855 5.10508 35.6677 5.10508ZM33.2236 8.53158C33.0544 9.53726 32.2594 10.2124 31.2454 10.2124C30.7362 10.2124 30.3294 10.0485 30.068 9.73783C29.8088 9.4293 29.7105 8.99008 29.7928 8.50086C29.9508 7.50377 30.7592 6.80646 31.7578 6.80646C32.2557 6.80646 32.6604 6.97269 32.9271 7.28589C33.1942 7.60254 33.3002 8.04448 33.2236 8.53158Z" fill="#28356A"/>
<path id="Fill 3" fill-rule="evenodd" clip-rule="evenodd" d="M44.8713 5.25586H43.1092C42.9411 5.25586 42.7832 5.33973 42.688 5.48006L40.2578 9.07411L39.2277 5.62025C39.1629 5.40417 38.9643 5.25586 38.7394 5.25586H37.008C36.7975 5.25586 36.6514 5.4623 36.7183 5.6612L38.6591 11.3797L36.8345 13.9659C36.691 14.1697 36.8356 14.4497 37.0835 14.4497H38.8433C39.0104 14.4497 39.1666 14.368 39.2614 14.2305L45.1218 5.73694C45.2622 5.53382 45.118 5.25586 44.8713 5.25586Z" fill="#28356A"/>
<path id="Fill 4" fill-rule="evenodd" clip-rule="evenodd" d="M50.7453 1.7771H47.0833C46.8333 1.7771 46.6202 1.9599 46.5811 2.20834L45.1001 11.6355C45.0708 11.8216 45.2143 11.9892 45.4011 11.9892H47.2804C47.4548 11.9892 47.6041 11.8613 47.6314 11.6871L48.0518 9.01487C48.0903 8.76597 48.304 8.58318 48.554 8.58318H49.7127C52.125 8.58318 53.5165 7.41126 53.8807 5.08912C54.045 4.07305 53.8871 3.27486 53.4132 2.71578C52.8933 2.10189 51.9708 1.7771 50.7453 1.7771ZM51.1678 5.21998C50.968 6.53915 49.9642 6.53915 48.993 6.53915H48.4411L48.8292 4.07547C48.8522 3.92655 48.9796 3.81694 49.1301 3.81694H49.3833C50.0439 3.81694 50.6683 3.81694 50.9905 4.19533C51.1828 4.42104 51.2411 4.75652 51.1678 5.21998Z" fill="#298FC2"/>
<path id="Fill 5" fill-rule="evenodd" clip-rule="evenodd" d="M61.7816 5.10508H60.0292C59.8788 5.10508 59.7509 5.2147 59.7284 5.36362L59.6507 5.856L59.5276 5.67757C59.148 5.12436 58.3021 4.93945 57.4572 4.93945C55.5196 4.93945 53.8653 6.41297 53.543 8.47989C53.376 9.51087 53.6131 10.4968 54.1955 11.1843C54.7311 11.8165 55.4944 12.08 56.4041 12.08C57.9652 12.08 58.831 11.072 58.831 11.072L58.7529 11.5612C58.7235 11.7482 58.8668 11.916 59.0549 11.916H60.6337C60.8837 11.916 61.0968 11.7332 61.136 11.4843L62.0841 5.45878C62.113 5.27327 61.9695 5.10508 61.7816 5.10508ZM59.3375 8.53158C59.1694 9.53726 58.3732 10.2124 57.3592 10.2124C56.8511 10.2124 56.4432 10.0485 56.1818 9.73783C55.9228 9.4293 55.8253 8.99008 55.9066 8.50086C56.0657 7.50377 56.873 6.80646 57.8716 6.80646C58.3695 6.80646 58.7742 6.97269 59.0409 7.28589C59.309 7.60254 59.415 8.04448 59.3375 8.53158Z" fill="#298FC2"/>
<path id="Fill 6" fill-rule="evenodd" clip-rule="evenodd" d="M63.7026 2.03575L62.1998 11.6354C62.1704 11.8215 62.3137 11.9891 62.5006 11.9891H64.0115C64.2627 11.9891 64.4756 11.8065 64.5142 11.5576L65.9962 2.13091C66.0257 1.9448 65.8822 1.77661 65.6953 1.77661H64.0036C63.8542 1.77706 63.7257 1.88683 63.7026 2.03575Z" fill="#298FC2"/>
</g>
</g>
</svg>
