<svg width="35" height="24" viewBox="0 0 35 24" fill="none" xmlns="http://www.w3.org/2000/svg">
<g id="Visa">
<g id="Rectangle">
<rect width="35" height="24" rx="4" fill="white"/>
<rect x="0.5" y="0.5" width="34" height="23" rx="3.5" stroke="#838E9E" stroke-opacity="0.3"/>
</g>
<path id="polygon9" d="M15.5399 16.46H13.2097L14.6672 8.05957H16.9973L15.5399 16.46Z" fill="#15195A"/>
<path id="path11" d="M23.9869 8.26487C23.5273 8.0949 22.7983 7.90723 21.8969 7.90723C19.5958 7.90723 17.9753 9.05105 17.9654 10.6864C17.9463 11.8929 19.1256 12.5631 20.0076 12.9654C20.9091 13.3765 21.2156 13.6448 21.2156 14.0112C21.2064 14.574 20.4871 14.8334 19.8162 14.8334C18.8859 14.8334 18.3874 14.6996 17.6299 14.3865L17.323 14.2523L16.9969 16.138C17.5435 16.3701 18.5504 16.5761 19.5958 16.5851C22.0408 16.5851 23.6326 15.459 23.6514 13.7163C23.6607 12.76 23.038 12.0273 21.6955 11.4285C20.8805 11.0441 20.3813 10.785 20.3813 10.3917C20.3909 10.0342 20.8035 9.66799 21.7235 9.66799C22.481 9.65005 23.0376 9.81978 23.4593 9.98964L23.67 10.0788L23.9869 8.26487V8.26487V8.26487Z" fill="#15195A"/>
<path id="path13" fill-rule="evenodd" clip-rule="evenodd" d="M28.158 8.05957H29.9604L31.8403 16.4599H29.6828C29.6828 16.4599 29.4716 15.4947 29.4047 15.1998H26.413C26.3264 15.4231 25.9239 16.4599 25.9239 16.4599H23.4789L26.9401 8.75656C27.1799 8.21137 27.6022 8.05957 28.158 8.05957ZM28.0145 11.1337C28.0145 11.1337 27.276 13.0014 27.0841 13.484H29.021C28.9252 13.064 28.4839 11.0532 28.4839 11.0532L28.321 10.3294C28.2525 10.5158 28.1533 10.772 28.0864 10.9449C28.0411 11.0621 28.0106 11.1409 28.0145 11.1337Z" fill="#15195A"/>
<path id="Combined Shape" fill-rule="evenodd" clip-rule="evenodd" d="M3.11318 8.05957H6.86226C7.37043 8.07727 7.78277 8.22918 7.91695 8.7657L8.73164 12.625C8.73176 12.6253 8.73188 12.6257 8.732 12.6261L8.98137 13.7879L11.2634 8.05957H13.7274L10.0647 16.4511H7.6006L5.52369 9.15188C4.80709 8.76136 3.98924 8.44727 3.07483 8.2293L3.11318 8.05957Z" fill="#15195A"/>
</g>
</svg>
