<svg width="24" height="24" viewBox="0 0 24 24" fill="none" xmlns="http://www.w3.org/2000/svg">
<g id="Icon">
<path id="Vector" fill-rule="evenodd" clip-rule="evenodd" d="M3 12C3 7.02943 7.02943 3 12 3C16.9705 3 21 7.02943 21 12C21 16.9705 16.9705 21 12 21C7.02943 21 3 16.9705 3 12ZM15.4489 14.2992C15.1731 14.7128 14.6143 14.8246 14.2008 14.5489L11.8606 12.9887C11.3854 12.6719 11.1 12.1387 11.1 11.5676V11.55V7.5C11.1 7.00295 11.5029 6.6 12 6.6C12.4971 6.6 12.9 7.00295 12.9 7.5V11.5183L15.1992 13.0511C15.6128 13.3269 15.7246 13.8857 15.4489 14.2992Z" fill="#008E62"/>
</g>
</svg>
