<svg width="25" height="24" viewBox="0 0 25 24" fill="none" xmlns="http://www.w3.org/2000/svg">
<g id="Icon">
<path id="Vector" d="M19.3043 4.65668L12.8053 3.00975C12.7335 2.99675 12.6599 2.99675 12.5881 3.00975C12.5281 3.00074 12.467 3.00074 12.407 3.00975L5.87185 4.65668C5.45748 4.75953 5.09303 5.00472 4.84292 5.34892C4.5928 5.69312 4.47314 6.11416 4.50507 6.5376L4.88523 11.4964C5.03749 13.4635 5.72879 15.3515 6.88408 16.9555C8.03938 18.5595 9.61452 19.8183 11.4385 20.595L12.2351 20.937C12.3354 20.9786 12.4431 21 12.5519 21C12.6606 21 12.7683 20.9786 12.8687 20.937L13.6652 20.595C15.4892 19.8183 17.0643 18.5595 18.2196 16.9555C19.3749 15.3515 20.0662 13.4635 20.2185 11.4964L20.5986 6.5376C20.6343 6.12373 20.5249 5.71033 20.289 5.36751C20.0531 5.02469 19.7052 4.77355 19.3043 4.65668ZM15.9462 9.94846L12.3256 13.5483C12.2414 13.6327 12.1413 13.6996 12.031 13.7453C11.9207 13.791 11.8024 13.8145 11.6829 13.8145C11.5634 13.8145 11.4451 13.791 11.3348 13.7453C11.2245 13.6996 11.1244 13.6327 11.0403 13.5483L9.22996 11.7484C9.05951 11.5789 8.96376 11.3491 8.96376 11.1094C8.96376 10.8698 9.05951 10.6399 9.22996 10.4704C9.4004 10.301 9.63157 10.2058 9.87261 10.2058C10.1137 10.2058 10.3448 10.301 10.5153 10.4704L11.6829 11.6404L14.6609 8.67051C14.8313 8.50105 15.0625 8.40584 15.3035 8.40584C15.5446 8.40584 15.7757 8.50105 15.9462 8.67051C16.1166 8.83998 16.2124 9.06983 16.2124 9.30949C16.2124 9.54915 16.1166 9.77899 15.9462 9.94846Z" fill="#008E62"/>
</g>
</svg>
